<svg width="30.000000000000004" height="30.000000000000004" xmlns="http://www.w3.org/2000/svg">
 <!-- Created with Method Draw - http://github.com/duopixel/Method-Draw/ -->

 <g>
  <title>background</title>
  <rect fill="none" id="canvas_background" height="32" width="32" y="-1" x="-1"/>
 </g>
 <g>
  <title>Layer 1</title>
  <!-- Created with Method Draw - http://github.com/duopixel/Method-Draw/ -->
  <g stroke="null" id="svg_47">
   <g stroke="null" transform="matrix(8.997455610350057,0,0,8.997455610350057,0.31588802457460874,0.210593201789528) " id="svg_44">
    <title stroke="null" transform="translate(0,0.04517989233136177) translate(0,0.031548354774713516) translate(0.031548354774713516,0) translate(-0.031548354774713516,0) translate(-0.031548354774713516,0) translate(0,-0.031548354774713516) translate(-0.031548354774713516,0) translate(-0.031548354774713516,0) translate(0,-0.031548354774713516) translate(0,-0.031548354774713516) translate(0,-0.031548354774713516) translate(0,-0.031548354774713516) translate(0,-0.031548354774713516) translate(0,-0.031548354774713516) translate(-0.031548354774713516,0) translate(-0.031548354774713516,0) translate(-0.031548354774713516,0) translate(-0.031548354774713516,0) translate(-0.031548354774713516,0) translate(-0.031548354774713516,0) translate(0,8.20724105834961) translate(0,-0.011871718801558018) translate(8.690019607543945,0) translate(0.0053481669165194035,0) translate(-7.695367813110352,0) translate(0,-7.195369243621826) ">background</title>
    <g stroke="null" id="svg_41" display="none">
     <rect stroke="null" id="svg_45" width="30" height="30" x="0.716065" y="0.85589" stroke-width="0" fill="url(#gridpattern)"/>
    </g>
   </g>
   <g stroke="null" transform="matrix(1.8086237678454091,0,0,1.8086237678454091,-62.19364826832257,-58.70453616217837) " id="svg_46">
    <title stroke="null" transform="translate(0,0.22475877404212952) translate(0,0.15694525837898254) translate(0.15694525837898254,0) translate(-0.15694525837898254,0) translate(-0.15694525837898254,0) translate(0,-0.15694525837898254) translate(-0.15694525837898254,0) translate(-0.15694525837898254,0) translate(0,-0.15694525837898254) translate(0,-0.15694525837898254) translate(0,-0.15694525837898254) translate(0,-0.15694525837898254) translate(0,-0.15694525837898254) translate(0,-0.15694525837898254) translate(-0.15694525837898254,0) translate(-0.15694525837898254,0) translate(-0.15694525837898254,0) translate(-0.15694525837898254,0) translate(-0.15694525837898254,0) translate(-0.15694525837898254,0) translate(0,40.8289909362793) translate(0,-0.059058863669633865) translate(43.23069763183594,0) translate(0.02660580538213253,0) translate(-7.695367813110352,0) translate(0,-7.195369243621826) ">Layer 1</title>
    <g stroke="null" id="svg_23">
     <path stroke="null" d="m48.714808,33.36625c-0.0335,-0.00373 -0.83733,-0.09155 -2.00425,-0.09155c-2.78918,0 -6.59194,0.47777 -8.86834,2.75418c-4.26724,4.26723 -2.6945,10.80322 -2.62553,11.07923c0.07012,0.28049 0.21477,0.53026 0.41178,0.72727l14.01998,-14.01998c-0.24584,-0.24577 -0.57204,-0.409 -0.93364,-0.44915z" fill="#0a79bf" id="svg_40"/>
     <path stroke="null" d="m50.060368,34.54233c-0.07046,-0.28185 -0.21559,-0.53067 -0.41192,-0.72693l-14.01998,14.02005c0.19714,0.19701 0.44664,0.34152 0.72706,0.41171c0.05521,0.01391 1.37336,0.33834 3.16556,0.33834c2.25837,0 5.46441,-0.51418 7.91402,-2.96373c4.2671,-4.2671 2.69443,-10.80329 2.62526,-11.07944z" fill="#0da2ff" id="svg_39"/>
     <g stroke="null" id="svg_38" transform="matrix(0.06781683510376357,0,0,0.06781683510376357,0,0) "/>
     <g stroke="null" id="svg_37" transform="matrix(0.06781683510376357,0,0,0.06781683510376357,0,0) "/>
     <g stroke="null" id="svg_36" transform="matrix(0.06781683510376357,0,0,0.06781683510376357,0,0) "/>
     <g stroke="null" id="svg_35" transform="matrix(0.06781683510376357,0,0,0.06781683510376357,0,0) "/>
     <g stroke="null" id="svg_34" transform="matrix(0.06781683510376357,0,0,0.06781683510376357,0,0) "/>
     <g stroke="null" id="svg_33" transform="matrix(0.06781683510376357,0,0,0.06781683510376357,0,0) "/>
     <g stroke="null" id="svg_32" transform="matrix(0.06781683510376357,0,0,0.06781683510376357,0,0) "/>
     <g stroke="null" id="svg_31" transform="matrix(0.06781683510376357,0,0,0.06781683510376357,0,0) "/>
     <g stroke="null" id="svg_30" transform="matrix(0.06781683510376357,0,0,0.06781683510376357,0,0) "/>
     <g stroke="null" id="svg_29" transform="matrix(0.06781683510376357,0,0,0.06781683510376357,0,0) "/>
     <g stroke="null" id="svg_28" transform="matrix(0.06781683510376357,0,0,0.06781683510376357,0,0) "/>
     <g stroke="null" id="svg_27" transform="matrix(0.06781683510376357,0,0,0.06781683510376357,0,0) "/>
     <g stroke="null" id="svg_26" transform="matrix(0.06781683510376357,0,0,0.06781683510376357,0,0) "/>
     <g stroke="null" id="svg_25" transform="matrix(0.06781683510376357,0,0,0.06781683510376357,0,0) "/>
     <g stroke="null" id="svg_24" transform="matrix(0.06781683510376357,0,0,0.06781683510376357,0,0) "/>
    </g>
   </g>
  </g>
 </g>
</svg>